<svg width="84" height="28" viewBox="0 0 84 28" fill="none" xmlns="http://www.w3.org/2000/svg">
<g clip-path="url(#clip0_2018_592)">
<path d="M9.511 10.732C10.0917 10.732 10.6203 10.8057 11.097 10.953C11.5737 11.0917 11.9637 11.2997 12.267 11.577C12.813 12.071 13.1943 12.6127 13.411 13.202C13.6363 13.7827 13.749 14.528 13.749 15.438C13.749 15.6287 13.723 15.802 13.671 15.958C13.6277 16.114 13.554 16.3133 13.45 16.556C13.32 16.8247 13.242 17.037 13.216 17.193C13.0427 17.4963 12.7567 17.7867 12.358 18.064C11.968 18.3413 11.5433 18.5667 11.084 18.74C10.6247 18.9133 10.2217 19 9.875 19C8.20233 19 7.01067 18.428 6.3 17.284C6.10067 16.9633 5.94467 16.6297 5.832 16.283C5.728 15.9363 5.676 15.5983 5.676 15.269C5.676 14.385 5.832 13.618 6.144 12.968C6.46467 12.3093 6.90667 11.798 7.47 11.434C7.808 11.2347 8.159 11.07 8.523 10.94C8.89567 10.8013 9.225 10.732 9.511 10.732ZM7.028 15.308C7.028 15.776 7.132 16.1617 7.34 16.465C7.55667 16.7683 7.886 17.0977 8.328 17.453C8.692 17.5917 8.939 17.6827 9.069 17.726C9.199 17.7607 9.34633 17.778 9.511 17.778C10.3863 17.778 11.084 17.5397 11.604 17.063C12.124 16.5863 12.384 15.932 12.384 15.1C12.384 14.4413 12.3103 13.9213 12.163 13.54C12.0157 13.1587 11.7513 12.8163 11.37 12.513C11.1707 12.3483 10.915 12.227 10.603 12.149C10.2997 12.071 9.97033 12.032 9.615 12.032C9.07767 12.032 8.614 12.1923 8.224 12.513C7.834 12.825 7.535 13.2323 7.327 13.735C7.12767 14.2377 7.028 14.762 7.028 15.308ZM24.1569 10.784C24.2783 10.784 24.4256 10.8663 24.5989 11.031C24.7809 11.187 24.8719 11.3213 24.8719 11.434C24.8719 11.9627 24.8546 12.6863 24.8199 13.605C24.8113 13.8303 24.8026 14.1033 24.7939 14.424C24.7853 14.736 24.7809 15.1 24.7809 15.516C24.7809 16.8333 24.8589 17.804 25.0149 18.428C25.0063 18.636 24.9239 18.7877 24.7679 18.883C24.6119 18.9697 24.4559 19.013 24.2999 19.013C23.9533 19.013 23.7236 18.8917 23.6109 18.649C23.5069 18.4063 23.4549 18.0597 23.4549 17.609C23.4549 15.9363 23.4723 14.398 23.5069 12.994C22.5103 14.1033 21.7346 15.035 21.1799 15.789C21.1799 15.789 21.1019 15.841 20.9459 15.945C20.7986 16.075 20.6773 16.14 20.5819 16.14C20.3566 16.14 20.1703 16.0837 20.0229 15.971C19.8756 15.8583 19.7326 15.6937 19.5939 15.477L18.9699 14.593C18.5366 13.9863 18.2203 13.527 18.0209 13.215C18.0209 14.0123 18.0599 15.0957 18.1379 16.465C18.1986 17.2537 18.2289 17.8473 18.2289 18.246C18.2289 18.454 18.1769 18.6317 18.0729 18.779C17.9689 18.9177 17.8043 18.987 17.5789 18.987C17.3536 18.987 17.1673 18.9437 17.0199 18.857C16.8813 18.7703 16.8076 18.6403 16.7989 18.467C16.8076 18.3197 16.8119 18.077 16.8119 17.739C16.8119 17.063 16.7903 16.2397 16.7469 15.269L16.7209 14.567L16.6949 13.657C16.6863 13.3883 16.6776 13.0763 16.6689 12.721C16.6603 12.357 16.6559 11.9627 16.6559 11.538C16.6559 11.018 16.9376 10.758 17.5009 10.758C17.6743 10.758 17.8476 10.8013 18.0209 10.888C18.2029 10.9747 18.3373 11.1003 18.4239 11.265C18.4933 11.5683 18.7489 12.071 19.1909 12.773C19.6329 13.475 20.0663 14.1337 20.4909 14.749C20.8723 14.2637 21.1843 13.8997 21.4269 13.657C21.8429 13.2323 22.1853 12.838 22.4539 12.474C22.7313 12.11 23.0303 11.6723 23.3509 11.161C23.4289 11.057 23.5416 10.9703 23.6889 10.901C23.8363 10.823 23.9923 10.784 24.1569 10.784ZM31.6026 11.421C31.6026 11.0483 31.8756 10.862 32.4216 10.862C32.6556 10.862 33.1019 10.8707 33.7606 10.888C34.4886 10.9227 35.0389 10.94 35.4116 10.94C35.7149 10.94 36.0832 10.9227 36.5166 10.888C36.8112 10.8707 36.9976 10.862 37.0756 10.862C37.5522 10.8793 37.9552 10.966 38.2846 11.122C38.3799 11.1653 38.4579 11.2173 38.5186 11.278C38.5792 11.3387 38.6096 11.4383 38.6096 11.577C38.6096 11.7677 38.5489 11.9323 38.4276 12.071C38.3062 12.201 38.1589 12.266 37.9856 12.266C37.7949 12.266 37.5176 12.24 37.1536 12.188C36.8329 12.1273 36.5512 12.097 36.3086 12.097C36.0746 12.097 35.8969 12.1013 35.7756 12.11C35.7496 12.396 35.7366 13.0807 35.7366 14.164C35.7366 15.4553 35.7756 16.764 35.8536 18.09L35.8796 18.467C35.8796 18.8223 35.6759 19 35.2686 19C34.9479 19 34.7312 18.9263 34.6186 18.779C34.5059 18.623 34.4496 18.389 34.4496 18.077C34.4496 17.4617 34.4322 16.6947 34.3976 15.776C34.3629 15.0133 34.3456 14.4717 34.3456 14.151C34.3456 13.9343 34.3716 13.2713 34.4236 12.162L32.9026 12.175C32.4172 12.175 32.0792 12.1317 31.8886 12.045C31.6979 11.9497 31.6026 11.7417 31.6026 11.421ZM44.9347 19.013C44.3627 19.013 43.8383 18.9437 43.3617 18.805C42.885 18.6577 42.495 18.4453 42.1917 18.168C41.637 17.674 41.247 17.1367 41.0217 16.556C40.805 15.9667 40.6967 15.217 40.6967 14.307C40.6967 14.1163 40.7227 13.9387 40.7747 13.774C40.8353 13.6007 40.9133 13.41 41.0087 13.202C41.0347 13.1413 41.0737 13.046 41.1257 12.916C41.1863 12.7773 41.2253 12.6517 41.2427 12.539C41.4073 12.2357 41.6847 11.9453 42.0747 11.668C42.4733 11.3907 42.9023 11.1697 43.3617 11.005C43.821 10.8317 44.224 10.745 44.5707 10.745C46.2433 10.745 47.4393 11.317 48.1587 12.461C48.566 13.1283 48.7697 13.8 48.7697 14.476C48.7697 15.3513 48.6093 16.1183 48.2887 16.777C47.9767 17.4357 47.5433 17.947 46.9887 18.311C46.642 18.519 46.2867 18.688 45.9227 18.818C45.5587 18.948 45.2293 19.013 44.9347 19.013ZM42.0487 15.269C42.04 15.7457 42.1397 16.14 42.3477 16.452C42.5643 16.7553 42.9023 17.089 43.3617 17.453C43.7083 17.583 43.951 17.6697 44.0897 17.713C44.2283 17.7563 44.38 17.778 44.5447 17.778C45.108 17.778 45.6063 17.661 46.0397 17.427C46.473 17.193 46.8067 16.8723 47.0407 16.465C47.2833 16.0577 47.4047 15.6027 47.4047 15.1C47.4047 14.4413 47.331 13.9213 47.1837 13.54C47.0363 13.1587 46.772 12.8163 46.3907 12.513C46.1913 12.3483 45.9357 12.227 45.6237 12.149C45.3203 12.071 44.9953 12.032 44.6487 12.032C43.8167 12.032 43.171 12.3267 42.7117 12.916C42.261 13.4967 42.04 14.281 42.0487 15.269ZM53.0295 11.46C53.0295 11.7113 53.0208 12.045 53.0035 12.461L52.9905 13.306C52.9905 14.1293 53.0512 14.8183 53.1725 15.373C53.3458 16.153 53.6058 16.7553 53.9525 17.18C54.2732 17.5527 54.6675 17.739 55.1355 17.739C55.4995 17.739 55.8245 17.6307 56.1105 17.414C56.3965 17.1887 56.6175 16.9113 56.7735 16.582C57.0335 16.0447 57.1635 15.3817 57.1635 14.593C57.1635 14.1163 57.1332 13.553 57.0725 12.903C57.0205 12.175 56.9945 11.629 56.9945 11.265C56.9945 11.0743 57.1072 10.953 57.3325 10.901C57.5578 10.8403 57.7918 10.81 58.0345 10.81C58.1212 10.81 58.2208 10.8663 58.3335 10.979C58.4462 11.0917 58.5025 11.213 58.5025 11.343C58.5025 11.603 58.4895 11.85 58.4635 12.084C58.4462 12.344 58.4375 12.526 58.4375 12.63C58.4375 12.9593 58.4548 13.4187 58.4895 14.008C58.4982 14.1553 58.5068 14.333 58.5155 14.541C58.5242 14.749 58.5285 14.9873 58.5285 15.256C58.5285 15.8453 58.3855 16.4347 58.0995 17.024C57.8222 17.6047 57.4322 18.0857 56.9295 18.467C56.4268 18.8397 55.8592 19.026 55.2265 19.026C54.2558 19.026 53.4975 18.714 52.9515 18.09C52.4055 17.4573 52.0328 16.6427 51.8335 15.646C51.7208 15.074 51.6472 14.476 51.6125 13.852C51.5865 13.228 51.5735 12.3917 51.5735 11.343C51.5735 11.2043 51.6385 11.0743 51.7685 10.953C51.9072 10.8317 52.0545 10.771 52.2105 10.771C52.7565 10.771 53.0295 11.0007 53.0295 11.46ZM65.9526 15.555C66.7066 16.8377 67.413 17.856 68.0716 18.61C68.141 18.6793 68.1756 18.7573 68.1756 18.844C68.1756 18.9567 68.1063 19.052 67.9676 19.13C67.829 19.2167 67.6686 19.26 67.4866 19.26C67.218 19.26 66.9276 19.1473 66.6156 18.922C66.3903 18.766 66.1823 18.5363 65.9916 18.233C65.801 17.921 65.5843 17.5223 65.3416 17.037L65.1206 16.595C64.8953 16.1877 64.761 15.9493 64.7176 15.88C64.527 15.958 64.306 16.0143 64.0546 16.049C63.8033 16.0837 63.4956 16.114 63.1316 16.14C63.149 17.2493 63.1576 18.025 63.1576 18.467C63.1576 18.6317 63.097 18.766 62.9756 18.87C62.8543 18.9653 62.7026 19.013 62.5206 19.013C62.2953 19.013 62.122 18.922 62.0006 18.74C61.8793 18.4973 61.8186 18.1203 61.8186 17.609L61.8316 16.66C61.8316 16.0707 61.8446 15.5117 61.8706 14.983C61.888 14.2897 61.8966 13.7783 61.8966 13.449L61.9096 12.786C61.9096 12.5867 61.8966 12.383 61.8706 12.175C61.732 12.1317 61.6106 12.0667 61.5066 11.98C61.4026 11.8847 61.3506 11.7807 61.3506 11.668C61.3506 11.4513 61.4286 11.2867 61.5846 11.174C61.7493 11.0527 61.953 10.9747 62.1956 10.94C62.8976 10.8273 63.5823 10.771 64.2496 10.771C65.385 10.771 66.3253 10.9833 67.0706 11.408C67.816 11.8327 68.1886 12.4783 68.1886 13.345C68.1886 13.6137 68.128 13.8737 68.0066 14.125C67.894 14.3677 67.738 14.5713 67.5386 14.736C67.0186 15.1433 66.49 15.4163 65.9526 15.555ZM66.8106 13.306C66.8106 12.89 66.5896 12.552 66.1476 12.292C65.7143 12.0233 65.0903 11.889 64.2756 11.889C63.9203 11.889 63.5563 11.9323 63.1836 12.019C63.201 12.331 63.2096 12.552 63.2096 12.682C63.2096 12.942 63.1923 13.3147 63.1576 13.8C63.1403 14.2853 63.1316 14.6753 63.1316 14.97C63.7123 14.97 64.267 14.892 64.7956 14.736C65.177 14.6233 65.4976 14.515 65.7576 14.411C66.0176 14.307 66.256 14.164 66.4726 13.982C66.698 13.7913 66.8106 13.566 66.8106 13.306ZM76.7324 16.647C76.7324 17.0543 76.637 17.4053 76.4464 17.7C76.2644 17.986 75.961 18.2503 75.5364 18.493C75.2504 18.6663 74.9167 18.7963 74.5354 18.883C74.154 18.9697 73.7684 19.013 73.3784 19.013C72.9797 19.013 72.4857 18.883 71.8964 18.623C71.4717 18.415 71.1337 18.168 70.8824 17.882C70.6397 17.596 70.5184 17.284 70.5184 16.946C70.5184 16.712 70.5704 16.543 70.6744 16.439C70.7784 16.3263 70.9474 16.27 71.1814 16.27C71.3027 16.27 71.4284 16.322 71.5584 16.426C71.6884 16.5213 71.7664 16.6167 71.7924 16.712C71.9137 17.0673 72.126 17.3403 72.4294 17.531C72.7327 17.713 73.1097 17.804 73.5604 17.804C74.0804 17.804 74.5137 17.7087 74.8604 17.518C75.2157 17.3273 75.3934 17.0717 75.3934 16.751C75.3934 16.439 75.2027 16.1617 74.8214 15.919C74.44 15.6763 74.05 15.5073 73.6514 15.412C73.0794 15.256 72.5724 15.0697 72.1304 14.853C71.671 14.6277 71.3287 14.3503 71.1034 14.021C70.878 13.6917 70.7654 13.345 70.7654 12.981C70.7654 12.643 70.8824 12.3007 71.1164 11.954C71.3504 11.5987 71.6277 11.343 71.9484 11.187C72.1217 11.1003 72.4164 11.0093 72.8324 10.914C73.257 10.81 73.5647 10.758 73.7554 10.758C74.0067 10.758 74.284 10.7883 74.5874 10.849C74.8907 10.9097 75.1377 10.9963 75.3284 11.109C75.7097 11.3257 75.9914 11.5207 76.1734 11.694C76.3554 11.8673 76.4464 12.084 76.4464 12.344C76.4464 12.5 76.3857 12.6387 76.2644 12.76C76.1517 12.8813 75.9524 12.942 75.6664 12.942C75.597 12.942 75.5277 12.9117 75.4584 12.851C75.389 12.7903 75.3024 12.6993 75.1984 12.578C75.0597 12.396 74.9254 12.2747 74.7954 12.214C74.6654 12.1707 74.4747 12.123 74.2234 12.071C73.9807 12.019 73.764 11.993 73.5734 11.993C73.3654 11.993 73.1487 12.0363 72.9234 12.123C72.698 12.2097 72.5074 12.3353 72.3514 12.5C72.204 12.656 72.1304 12.838 72.1304 13.046C72.1304 13.2193 72.2084 13.371 72.3644 13.501C72.529 13.6223 72.724 13.722 72.9494 13.8C73.2094 13.904 73.491 13.995 73.7944 14.073C74.193 14.1943 74.518 14.307 74.7694 14.411C75.0294 14.5063 75.2807 14.6277 75.5234 14.775C75.948 15.0263 76.2557 15.2863 76.4464 15.555C76.637 15.815 76.7324 16.179 76.7324 16.647Z" fill="black"/>
<line x1="18.4689" y1="0.893638" x2="0.000375286" y2="0.900228" stroke="black" stroke-width="1.78728"/>
<line x1="65.5408" y1="26.9541" x2="84.0087" y2="27.1063" stroke="black" stroke-width="1.78728"/>
<line x1="83.1076" y1="27.9926" x2="83.2599" y2="9.52475" stroke="black" stroke-width="1.78728"/>
<line x1="0.893638" y1="0.00593723" x2="0.900228" y2="18.4744" stroke="black" stroke-width="1.78728"/>
</g>
<defs>
<clipPath id="clip0_2018_592">
<rect width="84" height="28" fill="white"/>
</clipPath>
</defs>
</svg>
